<svg xmlns="http://www.w3.org/2000/svg" width="28" height="28" fill="none" xmlns:v="https://vecta.io/nano"><path fill-rule="evenodd" d="M14 0a1.4 1.4 0 0 1 1.4 1.4v1.4A1.4 1.4 0 0 1 14 4.2a1.4 1.4 0 0 1-1.4-1.4V1.4a1.4 1.4 0 0 1 .41-.99A1.4 1.4 0 0 1 14 0zM4.1 4.1a1.4 1.4 0 0 1 .99-.41 1.4 1.4 0 0 1 .99.41l.99.99a1.4 1.4 0 0 1 .41.99 1.4 1.4 0 0 1-.41.99 1.4 1.4 0 0 1-.99.41 1.4 1.4 0 0 1-.99-.41l-.99-.99a1.4 1.4 0 0 1-.41-.99 1.4 1.4 0 0 1 .41-.99zm19.8 0a1.4 1.4 0 0 1 .41.99 1.4 1.4 0 0 1-.41.99l-.99.99a1.4 1.4 0 0 1-1.98 0 1.4 1.4 0 0 1 0-1.98l.99-.99a1.4 1.4 0 0 1 .99-.41 1.4 1.4 0 0 1 .99.41zM7 14a7 7 0 0 1 7-7 7 7 0 0 1 7 7 7 7 0 0 1-7 7 7 7 0 0 1-7-7zm-7 0a1.4 1.4 0 0 1 1.4-1.4h1.4a1.4 1.4 0 0 1 .99.41 1.4 1.4 0 0 1 .41.99 1.4 1.4 0 0 1-.41.99 1.4 1.4 0 0 1-.99.41H1.4A1.4 1.4 0 0 1 0 14zm23.8 0a1.4 1.4 0 0 1 1.4-1.4h1.4a1.4 1.4 0 0 1 .99.41A1.4 1.4 0 0 1 28 14a1.4 1.4 0 0 1-.41.99 1.4 1.4 0 0 1-.99.41h-1.4a1.4 1.4 0 0 1-1.4-1.4zm-2.87 6.93a1.4 1.4 0 0 1 .99-.41 1.4 1.4 0 0 1 .99.41l.99.99a1.4 1.4 0 0 1 .41.99 1.4 1.4 0 0 1-.41.99 1.4 1.4 0 0 1-.99.41 1.4 1.4 0 0 1-.99-.41l-.99-.99a1.4 1.4 0 0 1-.41-.99 1.4 1.4 0 0 1 .41-.99zm-15.84 0a1.4 1.4 0 0 1 1.98 0 1.4 1.4 0 0 1 0 1.98l-.99.99a1.4 1.4 0 0 1-.99.41 1.4 1.4 0 0 1-.99-.41 1.4 1.4 0 0 1-.41-.99 1.4 1.4 0 0 1 .41-.99l.99-.99zM14 23.8a1.4 1.4 0 0 1 1.4 1.4v1.4A1.4 1.4 0 0 1 14 28a1.4 1.4 0 0 1-1.4-1.4v-1.4a1.4 1.4 0 0 1 1.4-1.4z" fill="#cfcfcf"/></svg>